<svg width="55" height="50" viewBox="0 0 55 50" fill="none" xmlns="http://www.w3.org/2000/svg">
<path d="M39.9224 45.025C41.0505 26.9588 47.9 12.6864 47.9 12.6864C34.3384 20.3053 31.8657 39.0121 31.4277 46.6455C32.06 19.5043 40.2016 0 40.2016 0C24.2302 13.5839 22.9559 40.1845 22.9329 47.8543C22.6865 41.2128 20.7492 20.7459 6.4033 12.6864C6.4033 12.6864 13.7422 27.9781 14.478 46.9407C14.0701 41.8382 11.7443 31.7402 0 28.1813C0 28.1813 6.0975 35.4446 6.0975 49.971H48.078C48.078 35.4446 54.1755 28.1813 54.1755 28.1813C43.765 31.336 40.756 39.628 39.9224 45.025Z" fill="#5A7348"/>
</svg>
