<svg width="34" height="35" viewBox="0 0 34 35" fill="none" xmlns="http://www.w3.org/2000/svg">
<path d="M25.291 15.4754C23.6153 15.3313 22.2367 14.1321 21.8261 12.5464H18.1836V22.14H24.929C25.3184 19.9869 25.4441 17.7248 25.291 15.4754Z" fill="#5A7348"/>
<path d="M25.6282 9.60156C24.5473 9.60156 23.668 10.4809 23.668 11.5618C23.668 12.6426 24.5473 13.522 25.6282 13.522C26.7091 13.522 27.5884 12.6426 27.5884 11.5618C27.5884 10.4809 26.709 9.60156 25.6282 9.60156Z" fill="#5A7348"/>
<path d="M8.67332 26.1494C10.3083 26.1494 11.6337 24.8239 11.6337 23.1889C11.6337 21.5539 10.3083 20.2285 8.67332 20.2285C7.03832 20.2285 5.71289 21.5539 5.71289 23.1889C5.71289 24.8239 7.03832 26.1494 8.67332 26.1494Z" fill="#5A7348"/>
<path d="M16.2138 0.542969C13.9668 2.087 12.1399 4.69036 10.8787 7.7048C10.4972 8.61666 10.1733 9.57938 9.9082 10.5775H16.2138V0.542969Z" fill="#5A7348"/>
<path d="M9.05843 18.2763C11.2433 18.4466 13.0323 20.0466 13.4879 22.14H16.213V12.5464H9.46958C9.13443 14.3999 8.99333 16.3376 9.05843 18.2763Z" fill="#5A7348"/>
<path d="M16.2141 34.143V24.1084H13.5151C13.2406 25.5564 12.3312 26.7817 11.0879 27.4835C12.317 30.2877 14.0351 32.6733 16.2141 34.143Z" fill="#5A7348"/>
<path d="M18.1836 34.143C20.5392 32.5263 22.426 29.7773 23.6915 26.5557C24.0002 25.7697 24.2671 24.9512 24.4914 24.1084H18.1836V34.143Z" fill="#5A7348"/>
<path d="M25.5238 27.276C24.5462 29.7647 23.2227 31.8798 21.6113 33.5567C26.5325 32.2206 30.5556 28.7046 32.58 24.1089H26.5217C26.2541 25.2034 25.9212 26.2643 25.5238 27.276Z" fill="#5A7348"/>
<path d="M8.67398 28.1178C6.27038 28.1178 4.26435 26.3882 3.83214 24.1084H1.81836C3.83496 28.6863 7.8347 32.193 12.73 33.5408C11.3012 32.0588 10.1224 30.2381 9.20463 28.0888C9.03019 28.1076 8.85327 28.1178 8.67398 28.1178Z" fill="#5A7348"/>
<path d="M27.241 15.1438C27.417 17.4965 27.3065 19.8689 26.9258 22.14H33.3027C33.7548 20.6198 33.9988 19.0101 33.9988 17.3431C33.9988 15.6762 33.7548 14.0665 33.3027 12.5464H29.4336C29.1332 13.7062 28.3146 14.6589 27.241 15.1438Z" fill="#5A7348"/>
<path d="M7.09793 18.5193C7.0184 16.5058 7.14781 14.4878 7.47338 12.5464H1.09453C0.642433 14.0665 0.398438 15.6762 0.398438 17.3431C0.398438 19.0101 0.642433 20.6198 1.09453 22.14H3.85755C4.22709 20.442 5.47397 19.0688 7.09793 18.5193Z" fill="#5A7348"/>
<path d="M25.6089 7.63352C25.6158 7.63346 25.6226 7.633 25.6295 7.633C27.4561 7.633 28.9955 8.88598 29.4336 10.5776H32.5796C30.5549 5.98147 26.5313 2.46513 21.6094 1.12939C21.9877 1.52341 22.3511 1.94184 22.6983 2.38514C23.879 3.89268 24.8559 5.65571 25.6089 7.63352Z" fill="#5A7348"/>
<path d="M18.1836 0.542969V10.5775H21.8261C22.0956 9.5366 22.7828 8.6626 23.6967 8.14357C22.7251 5.66313 21.0428 2.49683 18.1836 0.542969V0.542969Z" fill="#5A7348"/>
<path d="M9.06171 6.94463C10.0181 4.65863 11.277 2.70076 12.7871 1.12891C7.86503 2.46464 3.84115 5.98098 1.81641 10.5773H7.87612C8.18541 9.31075 8.58186 8.09156 9.06171 6.94463Z" fill="#5A7348"/>
</svg>
